<?xml version="1.0" standalone="no"?>
<!DOCTYPE svg PUBLIC "-//W3C//DTD SVG 20010904//EN"
 "http://www.w3.org/TR/2001/REC-SVG-20010904/DTD/svg10.dtd">
<svg version="1.0" xmlns="http://www.w3.org/2000/svg"
 width="226.000000pt" height="232.000000pt" viewBox="0 0 226.000000 232.000000"
 preserveAspectRatio="xMidYMid meet">

<g transform="translate(0.000000,232.000000) scale(0.100000,-0.100000)"
fill="#000000" stroke="none">
<path d="M543 1785 c-17 -7 -39 -28 -48 -45 -33 -63 -23 -77 225 -325 126
-126 230 -234 230 -240 0 -5 -103 -113 -229 -240 -152 -152 -232 -240 -237
-259 -16 -64 58 -138 122 -122 19 5 108 86 264 242 l235 234 234 -234 c130
-130 245 -237 259 -241 34 -8 88 12 106 40 9 13 16 43 16 67 0 42 -2 44 -235
278 l-235 235 235 235 235 236 0 45 c0 73 -60 121 -124 99 -20 -6 -115 -94
-261 -240 l-230 -230 -230 230 c-199 198 -261 251 -293 250 -4 -1 -21 -7 -39
-15z"/>
</g>
</svg>
