<?xml version="1.0" standalone="no"?>
<!DOCTYPE svg PUBLIC "-//W3C//DTD SVG 20010904//EN"
 "http://www.w3.org/TR/2001/REC-SVG-20010904/DTD/svg10.dtd">
<svg version="1.0" xmlns="http://www.w3.org/2000/svg"
 width="326.000000pt" height="410.000000pt" viewBox="0 0 326.000000 410.000000"
 preserveAspectRatio="xMidYMid meet">

<g transform="translate(0.000000,410.000000) scale(0.100000,-0.100000)"
fill="#000000" stroke="none">
<path d="M1032 3020 c-44 -27 -60 -70 -60 -159 1 -65 4 -78 24 -98 l23 -23
777 2 c898 3 804 -11 804 120 0 91 -15 129 -63 158 -31 19 -55 20 -752 20
-705 0 -721 -1 -753 -20z"/>
<path d="M1067 2466 c-46 -17 -64 -32 -83 -67 -34 -67 -4 -156 66 -191 32 -17
89 -18 737 -18 781 0 745 -3 793 68 51 73 15 179 -71 209 -52 18 -1390 17
-1442 -1z"/>
<path d="M992 1905 c-29 -36 -26 -181 4 -222 45 -60 16 -58 772 -61 455 -1
707 1 732 8 22 6 51 25 69 45 30 35 31 39 31 130 0 86 -2 95 -22 109 -20 14
-112 16 -794 16 l-773 0 -19 -25z"/>
</g>
</svg>
